**ABCDEFGHIJKLMNOPQRSTUVWXYZabcdefghijklmnopqrstuvwxyz**************************
**PARASOLID !"#$%&'()*+,-./:;<=>?@[\]^_`{|}~0123456789**************************
**PART1;
MC=unknown;
MC_MODEL=unknown;
MC_ID=unknown;
OS=unknown;
OS_RELEASE=unknown;
FRU=Parasolid 34.1.198;
APPL=Onshape;
SITE=unknown;
USER=unknown;
FORMAT=text;
GUISE=transmit;
KEY=BTGapi::writeModels_.xmt;
FILE=BTGapi::writeModels_.xmt;
DATE=2023-01-04T16:53:07 (UTC);
**PART2;
SCH=SCH_3401198_34101;
USFLD_SIZE=0;
**PART3;
**END_OF_HEADER*****************************************************************
T51 : TRANSMIT FILE created by modeller version 340119823 SCH_3401198_34101_1300
6231 0 12 36 CCCI7 lattice222 0 CCCI4 mesh1006 0 I8 polyline1008 0 CCCCCCCDI5 ow
ner1040 0 CCCI16 boundary_lattice222 0 CCCI13 boundary_mesh1006 0 I17 boundary_p
olyline1008 0 CCCA16 index_map_offset0 0 1 dA9 index_map82 0 A17 node_id_index_m
ap82 0 A20 schema_embedding_map82 0 A5 child12 0 A14 lowest_node_id0 0 1 dA16 me
sh_offset_data206 0 Z1 84 2 3 0 0 0 0 0 0 0 1e3 1e-8 0 4 0 1 0 1 1 5 0 6 7 0 0 0
 8 9 0 0 0 0 0 0 0 0 81 255 1 2 80 10 1 11 0 0 0 12 70 11 CI9 list_type0 0 1 uI1
0 notransmit0 0 1 lCCCDCCDI12 finger_index0 0 1 dI12 finger_block1012 0 CZ3 0 4
 T1 0 0 5 20 1 13 13 13 255 5 62 0 1 0 14 0 0 15 0 51 255 6 61 0 14 16 0 0 -0 91
8485099360515e-33 .05 0 0 -1 .015 -1 0 0 31 255 7 50 0 17 18 0 0 +0 183697019872
103e-32 0 0 0 1 1 0 0 .03 19 9 CCCCCCI5 frame230 0 CA5 owner12 0 Z8 19 0 1 15 0
 19 0 V0 16 255 9 13 20 ?21 0 22 23 0 0 1 81 1 20 72 24 9 0 0 25 26 27 17 255 21
 0 28 21 21 0 29 9 0 0 +16 22 8 30 ?31 9 17 32 0 0 1 31 23 15 0 9 32 18 0 +0 183
697019872103e-32 .05 0 0 1 1 0 0 .03 31 32 10 0 22 0 23 0 +0 918485099360515e-33
 .05 0 0 1 1 0 0 .015 31 18 51 0 33 23 7 0 +0 918485099360515e-33 0 0 0 1 1 0 0
 .015 16 33 45 34 ?35 17 0 18 0 0 1 81 1 34 69 24 33 0 0 0 30 36 17 35 0 37 35 3
5 0 38 33 0 0 +16 17 41 25 ?39 22 33 7 0 0 1 81 1 25 71 24 17 0 0 30 20 40 17 39
 0 41 39 39 0 42 17 0 0 +15 255 41 54 0 39 43 0 17 42 0 44 42 42 0 39 17 0 0 -15
 44 40 0 42 45 0 14 255 45 34 46 ?0 47 37 5 48 -0 0 0 47 19 81 1 46 84 49 45 50
 0 51 0 52 14 47 1 51 ?45 43 53 5 54 +0 0 45 43 19 15 37 39 0 35 45 44 50 255 48
 49 0 45 54 16 0 +0 0 0 0 0 1 1 0 0 13 19 20 0 0 0 0 0 0 8 14 14 14 57 55 ?43 0
 56 5 6 +0 0 43 0 19 81 1 55 81 49 14 26 0 0 57 58 14 43 53 57 ?47 14 59 5 16 -0
 0 47 14 19 15 56 56 0 31 14 60 17 31 0 56 31 31 0 61 22 0 0 +15 60 58 0 38 14 0
 17 38 0 60 38 38 0 35 33 0 0 -17 61 0 53 61 61 0 31 22 0 0 -15 53 6 0 61 47 28
 15 28 7 0 21 47 0 81 1 57 82 49 43 62 0 55 51 63 15 59 52 0 29 43 41 51 16 60 0
 43 48 6 0 -0 183697019872103e-32 .05 0 0 -1 .03 -1 0 0 17 29 0 59 29 29 0 21 9
 0 0 -80 7 CCCCCDI12 legal_owners0 16 1 lCZ1 49 0 64 8001 0 0 0 0 3 5 0 0 0 FFFF
TFTFFFFFFFFF2 81 1 62 76 24 43 0 57 65 66 67 81 1 51 83 49 47 65 0 57 46 68 83 2
55 3 63 .615686274509804 .811764705882353 .929411764705882 81 1 65 75 24 47 0 51
 50 62 69 83 3 68 .615686274509804 .811764705882353 .929411764705882 80 1 24 70
 71 9000 0 0 0 0 3 6 0 0 0 FFTFTFTTFFFFFFFF1 81 1 50 74 24 45 0 46 26 65 72 82 2
55 3 69 6 2 2 81 1 26 73 24 14 0 55 20 50 73 82 3 72 6 1 2 82 3 73 6 0 2 79 255
 9 71 BTI/DetId81 1 66 77 24 1 0 74 62 0 75 82 3 67 6 3 2 81 1 74 78 76 1 66 11
 0 0 77 82 3 75 6 0 3 80 1 76 78 79 8038 0 0 0 0 0 0 0 0 0 TTTTTTTTTTTTTFTF10 81
 1 11 79 78 1 74 2 0 0 80 98 255 6 77 80 97 114 116 32 49 80 1 78 81 82 8017 0 0
 0 0 0 0 0 0 0 TTTTTTTTTTTTTFTF3 84 255 6 80 Part 179 13 82 SDL/TYSA_NAME79 14 7
9 SDL/TYSA_UNAME79 15 64 SDL/TYSA_COLOUR83 3 58 .615686274509804 .81176470588235
3 .929411764705882 50 54 3 0 47 0 48 0 +0 0 .05 0 0 1 1 0 0 83 3 52 .61568627450
9804 .811764705882353 .929411764705882 81 1 30 70 24 22 0 0 34 25 83 82 3 40 6 2
 1 82 3 83 6 1 1 82 3 36 6 0 1 82 3 27 6 3 1 19 15 63 0 1 0 8 5 0 S0 74 4 CI16 i
ndex_map_offset0 0 1 dCCZ20 13 5 0 0 66 74 11 2 46 0 0 0 0 0 0 0 0 0 0 0 0 0 0 0
 80 1 10 49 84 8040 0 0 0 0 3 5 0 0 0 TTTFFFFFFFFFFFFF2 83 3 12 .615686274509804
 .811764705882353 .929411764705882 79 17 84 SDL/TYSA_COLOUR_21 0 
