**ABCDEFGHIJKLMNOPQRSTUVWXYZabcdefghijklmnopqrstuvwxyz**************************
**PARASOLID !"#$%&'()*+,-./:;<=>?@[\]^_`{|}~0123456789**************************
**PART1;
MC=unknown;
MC_MODEL=unknown;
MC_ID=unknown;
OS=unknown;
OS_RELEASE=unknown;
FRU=Parasolid 34.1.198;
APPL=Onshape;
SITE=unknown;
USER=unknown;
FORMAT=text;
GUISE=transmit;
KEY=BTGapi::writeModels_.xmt;
FILE=BTGapi::writeModels_.xmt;
DATE=2023-01-04T16:53:36 (UTC);
**PART2;
SCH=SCH_3401198_34101;
USFLD_SIZE=0;
**PART3;
**END_OF_HEADER*****************************************************************
T51 : TRANSMIT FILE created by modeller version 340119823 SCH_3401198_34101_1300
6231 0 12 36 CCCI7 lattice222 0 CCCI4 mesh1006 0 I8 polyline1008 0 CCCCCCCDI5 ow
ner1040 0 CCCI16 boundary_lattice222 0 CCCI13 boundary_mesh1006 0 I17 boundary_p
olyline1008 0 CCCA16 index_map_offset0 0 1 dA9 index_map82 0 A17 node_id_index_m
ap82 0 A20 schema_embedding_map82 0 A5 child12 0 A14 lowest_node_id0 0 1 dA16 me
sh_offset_data206 0 Z1 245 2 3 0 0 0 0 0 0 0 1e3 1e-8 0 4 0 1 0 1 1 5 0 6 7 8 0
 0 9 10 11 0 0 0 0 0 0 0 81 255 1 2 237 12 1 13 0 0 0 14 70 11 CI9 list_type0 0
 1 uI10 notransmit0 0 1 lCCCDCCDI12 finger_index0 0 1 dI12 finger_block1012 0 CZ
3 0 4 T1 0 0 5 20 1 15 15 13 255 5 183 0 1 0 16 0 0 17 0 50 255 6 178 0 16 18 0
 0 +.0475 .0248746859276655 .025 -.1 .99498743710662 0 -.99498743710662 -.1 0 30
 255 7 182 0 10 19 0 0 +-.002 .0198997487421324 .025 0 0 -1 29 255 8 149 0 20 21
 0 .097 .0298496231131986 0 19 9 CCCCCCI5 frame230 0 CA5 owner12 0 Z9 60 0 1 17
 0 22 0 V0 16 255 10 156 23 ?24 0 25 7 0 0 1 18 255 11 54 26 27 0 28 29 ?1 81 1
 26 209 30 11 0 0 31 23 32 17 255 27 0 33 34 35 11 36 37 0 38 +18 28 49 39 35 11
 40 41 ?1 29 29 56 0 11 41 42 .097 .0298496231131986 .025 29 41 51 0 28 43 29 .0
97 -.0298496231131986 .025 29 42 152 0 44 29 45 -.002 .0198997487421324 0 18 44
 138 46 24 47 0 42 ?1 29 45 151 0 47 42 21 -.002 -.0198997487421324 0 18 47 134
 48 49 50 44 45 ?1 29 21 150 0 50 45 8 .097 -.0298496231131986 0 18 50 130 51 52
 20 47 21 ?1 81 1 51 206 30 50 0 0 53 39 54 17 52 0 55 56 57 50 58 59 0 60 +18 2
0 126 31 61 62 50 8 ?1 81 1 31 208 30 20 0 0 39 26 63 17 61 0 64 65 66 20 38 67
 0 68 +18 62 39 69 70 40 20 71 ?1 81 1 69 203 30 62 0 0 46 48 72 17 70 0 64 66 6
5 62 24 10 0 73 -18 40 44 53 74 28 62 43 ?1 29 71 41 0 62 0 43 -.002 .0198997487
421324 .025 29 43 46 0 40 71 41 -.002 -.0198997487421324 .025 81 1 53 205 30 40
 0 0 48 51 75 17 74 0 33 35 34 40 73 76 0 77 +15 255 33 6 0 34 78 79 17 35 0 33
 27 74 28 80 81 0 56 +17 34 0 33 74 27 62 66 82 0 0 -17 73 0 83 24 77 62 74 76 0
 34 -16 76 14 84 ?74 81 82 85 0 0 1 17 77 0 83 73 49 40 57 25 0 80 -15 83 169 0
 49 86 0 17 49 0 83 77 24 47 87 88 0 57 +17 57 0 55 52 80 47 77 25 0 58 +16 25 1
55 89 ?57 10 90 19 0 0 1 17 80 0 55 57 56 40 35 81 0 0 -15 55 167 0 52 91 0 17 5
6 0 55 80 52 28 60 90 0 36 -16 81 19 92 ?35 37 76 93 0 0 1 81 1 92 225 30 81 0 0
 94 95 96 16 37 24 97 ?27 98 81 99 0 0 1 30 93 21 0 81 85 99 0 +.0475 -.02487468
59276655 .025 .99498743710662 -.1 0 31 255 85 16 0 76 100 93 0 +-216840434497101
e-33 -225514051876985e-31 .025 0 0 1 1 0 0 .02 31 99 26 0 37 93 101 0 +.1 -76573
6021277324e-32 .025 0 0 1 1 0 0 .03 31 101 31 0 98 99 102 0 +0 612323399573677e-
33 .025 0 0 1 1 0 0 .01 16 98 29 103 ?104 105 37 101 0 0 1 31 102 36 0 105 101 1
06 0 +.1 511940377855311e-32 .025 0 0 1 1 0 0 .015 16 105 34 107 ?108 67 98 102
 0 0 1 30 106 148 0 109 102 110 0 +.0475 .0248746859276655 0 .99498743710662 .1
 0 16 109 122 111 ?112 88 0 106 0 0 1 31 110 147 0 88 106 113 0 +-21684043449710
1e-33 -225514051876985e-31 0 0 0 1 1 0 0 .02 16 88 118 114 ?49 59 109 110 0 0 1
 30 113 146 0 59 110 115 0 +.0475 -.0248746859276655 0 .99498743710662 -.1 0 16
 59 114 94 ?52 116 88 113 0 0 1 31 115 145 0 116 113 117 0 +.1 -765736021277324e
-32 0 0 0 1 1 0 0 .03 16 116 110 118 ?68 119 59 115 0 0 1 31 117 144 0 119 115 1
20 0 +0 612323399573677e-33 0 0 0 1 1 0 0 .01 16 119 106 121 ?122 123 116 117 0
 0 1 31 120 143 0 123 117 124 0 +.1 511940377855311e-32 0 0 0 1 1 0 0 .015 16 12
3 102 125 ?126 82 119 120 0 0 1 30 124 179 0 67 120 127 0 +.097 .029849623113198
6 .025 0 0 -1 16 67 153 128 ?61 90 105 124 0 0 1 30 127 180 0 90 124 19 0 +.097
 -.0298496231131986 .025 0 0 -1 16 90 154 129 ?60 25 67 127 0 0 1 30 19 181 0 25
 127 7 0 +-.002 -.0198997487421324 .025 0 0 -1 81 1 129 212 30 90 0 0 89 128 130
 17 60 0 131 68 36 50 56 90 0 132 +15 131 165 0 68 133 0 17 68 0 131 38 60 20 13
2 116 0 112 +17 36 0 131 60 38 28 27 37 0 0 -17 132 0 134 58 112 50 68 116 0 0 -
15 134 99 0 112 135 136 17 58 0 134 87 132 47 52 59 0 0 -17 112 0 134 132 87 20
 65 109 0 0 +17 87 0 134 112 58 44 49 88 0 65 -17 65 0 64 70 61 44 112 109 0 0 -
15 64 171 0 65 16 0 14 255 16 172 137 ?86 0 64 5 6 +0 0 86 0 22 81 1 137 238 138
 16 139 0 0 140 141 14 86 170 140 ?91 16 83 5 18 -0 0 91 16 22 13 22 61 0 0 0 0
 0 0 9 16 81 1 140 239 138 86 142 0 137 143 144 14 91 168 143 ?145 86 55 5 146 -
0 0 145 86 22 51 255 18 177 0 86 146 6 0 --216840434497101e-33 -225514051876985e
-31 .025 0 0 -1 .02 -1 0 0 50 146 176 0 91 147 18 0 +.0475 -.0248746859276655 .0
25 .1 .99498743710662 0 -.99498743710662 .1 0 51 147 175 0 133 148 146 0 -.1 -76
5736021277324e-32 .025 0 0 -1 .03 -1 0 0 14 133 166 149 ?150 145 131 5 147 -0 0
 150 145 22 51 148 174 0 145 151 147 0 -0 612323399573677e-33 .025 0 0 -1 .01 -1
 0 0 14 145 162 152 ?133 91 153 5 148 +0 0 133 91 22 51 151 173 0 150 154 148 0
 -.1 511940377855311e-32 .025 0 0 -1 .015 -1 0 0 14 150 158 155 ?78 133 156 5 15
1 +0 0 78 133 22 50 154 142 0 135 157 151 0 +.055 0 0 0 0 1 1 0 0 14 135 90 158
 ?0 78 134 5 154 -0 0 0 78 22 50 157 3 0 78 0 154 0 +.055 0 .025 0 0 1 1 0 0 14
 78 1 159 ?135 150 33 5 157 +0 0 135 150 22 81 1 159 244 138 78 160 0 155 158 16
1 80 7 CCCCCDI12 legal_owners0 16 1 lCZ1 138 0 162 8001 0 0 0 0 3 5 0 0 0 FFFFTF
TFFFFFFFFF2 81 1 160 228 30 78 0 159 163 142 164 81 1 155 243 138 150 165 0 149
 159 166 81 1 158 245 138 135 163 0 159 0 167 83 255 3 161 .615686274509804 .811
764705882353 .929411764705882 81 1 163 227 30 135 0 158 95 160 168 83 3 167 .615
686274509804 .811764705882353 .929411764705882 80 1 30 169 170 9000 0 0 0 0 3 6
 0 0 0 FFTFTFTTFFFFFFFF1 81 1 95 226 30 145 0 152 92 163 171 82 255 3 168 6 1 2
 81 1 152 241 138 145 95 0 143 149 172 82 3 171 6 0 2 81 1 143 240 138 91 173 0
 140 152 174 81 1 149 242 138 133 175 0 152 155 176 83 3 172 .615686274509804 .8
11764705882353 .929411764705882 81 1 175 231 30 133 0 149 165 139 177 83 3 176 .
615686274509804 .811764705882353 .929411764705882 81 1 165 230 30 150 0 155 142
 175 178 81 1 139 232 30 16 0 137 175 173 179 82 3 177 6 5 2 81 1 173 233 30 91
 0 143 139 180 181 82 3 179 6 6 2 81 1 180 234 30 1 0 182 173 0 183 82 3 181 6 7
 2 81 1 182 235 184 1 180 13 0 0 185 82 3 183 6 0 3 80 1 184 186 187 8038 0 0 0
 0 0 0 0 0 0 TTTTTTTTTTTTTFTF10 81 1 13 236 186 1 182 2 0 0 188 98 255 6 185 80
 97 114 116 32 49 80 1 186 189 190 8017 0 0 0 0 0 0 0 0 0 TTTTTTTTTTTTTFTF3 84 2
55 6 188 Part 179 255 13 190 SDL/TYSA_NAME79 14 187 SDL/TYSA_UNAME81 1 142 229 3
0 86 0 140 160 165 191 82 3 178 6 4 2 82 3 191 6 3 2 83 3 174 .615686274509804 .
811764705882353 .929411764705882 79 9 170 BTI/DetId83 3 166 .615686274509804 .81
1764705882353 .929411764705882 82 3 164 6 2 2 79 15 162 SDL/TYSA_COLOUR15 156 15
7 0 108 150 192 17 108 0 156 108 108 0 193 105 0 0 +15 192 159 0 194 150 0 17 19
4 0 192 194 194 0 126 123 0 0 -17 126 0 195 126 126 0 194 123 0 0 +15 195 101 0
 126 135 0 17 193 0 196 193 193 0 108 105 0 0 -15 196 8 0 193 78 0 15 153 161 0
 104 145 197 17 104 0 153 104 104 0 198 98 0 0 +15 197 163 0 199 145 0 17 199 0
 197 199 199 0 122 119 0 0 -17 122 0 136 122 122 0 199 119 0 0 +15 136 100 0 122
 135 195 17 198 0 79 198 198 0 104 98 0 0 -15 79 7 0 198 78 196 83 3 144 .615686
274509804 .811764705882353 .929411764705882 83 3 141 .615686274509804 .811764705
882353 .929411764705882 17 38 0 131 36 68 11 61 67 0 66 -17 66 0 64 61 70 11 34
 82 0 0 +16 82 9 200 ?66 76 123 100 0 0 1 81 1 200 223 30 82 0 0 111 94 201 30 1
00 11 0 82 0 85 0 +.0475 .0248746859276655 .025 .99498743710662 .1 0 81 1 111 22
2 30 109 0 0 97 200 202 81 1 94 224 30 59 0 0 200 92 203 82 3 201 6 13 1 82 3 20
3 6 14 1 81 1 97 221 30 37 0 0 118 111 204 82 3 202 6 12 1 81 1 118 220 30 116 0
 0 107 97 205 82 3 204 6 11 1 81 1 107 219 30 105 0 0 125 118 206 82 3 205 6 10
 1 81 1 125 218 30 123 0 0 84 107 207 82 3 206 6 9 1 81 1 84 217 30 76 0 0 114 1
25 208 82 3 207 6 8 1 81 1 114 216 30 88 0 0 103 84 209 82 3 208 6 7 1 81 1 103
 215 30 98 0 0 121 114 210 82 3 209 6 6 1 81 1 121 214 30 119 0 0 128 103 211 82
 3 210 6 5 1 81 1 128 213 30 67 0 0 129 121 212 82 3 211 6 4 1 82 3 212 6 3 1 81
 1 89 211 30 25 0 0 23 129 213 82 3 130 6 2 1 81 1 23 210 30 10 0 0 26 89 214 82
 3 213 6 1 1 82 3 214 6 0 1 82 3 96 6 15 1 17 24 0 83 49 73 44 70 10 0 87 +81 1
 48 204 30 47 0 0 69 53 215 82 3 75 6 3 0 82 3 215 6 2 0 81 1 46 202 30 44 0 0 0
 69 216 82 3 72 6 1 0 82 3 216 6 0 0 81 1 39 207 30 28 0 0 51 31 217 82 3 63 6 6
 0 82 3 217 6 5 0 82 3 54 6 4 0 82 3 32 6 7 0 19 17 184 0 1 0 9 5 0 S0 74 4 CI16
 index_map_offset0 0 1 dCCZ20 15 5 0 0 180 182 13 2 158 0 0 0 0 0 0 0 0 0 0 0 0
 0 0 0 80 1 12 138 218 8040 0 0 0 0 3 5 0 0 0 TTTFFFFFFFFFFFFF2 83 3 14 .6156862
74509804 .811764705882353 .929411764705882 79 17 218 SDL/TYSA_COLOUR_21 0 
