**ABCDEFGHIJKLMNOPQRSTUVWXYZabcdefghijklmnopqrstuvwxyz**************************
**PARASOLID !"#$%&'()*+,-./:;<=>?@[\]^_`{|}~0123456789**************************
**PART1;
MC=unknown;
MC_MODEL=unknown;
MC_ID=unknown;
OS=unknown;
OS_RELEASE=unknown;
FRU=Parasolid 34.1.198;
APPL=Onshape;
SITE=unknown;
USER=unknown;
FORMAT=text;
GUISE=transmit;
KEY=BTGapi::writeModels_.xmt;
FILE=BTGapi::writeModels_.xmt;
DATE=2023-01-04T17:03:40 (UTC);
**PART2;
SCH=SCH_3401198_34101;
USFLD_SIZE=0;
**PART3;
**END_OF_HEADER*****************************************************************
T51 : TRANSMIT FILE created by modeller version 340119823 SCH_3401198_34101_1300
6231 0 10 21 CCCCI7 lattice222 0 CCCI4 mesh1006 0 I8 polyline1008 0 CCCCCCCCCCA1
6 mesh_offset_data206 0 Z1 11 2 3 0 0 0 0 0 0 0 0 1e3 1e-8 0 0 0 1 0 1 4 0 81 25
5 1 2 2 5 1 6 0 0 0 7 70 11 CI9 list_type0 0 1 uI10 notransmit0 0 1 lCCCDCCDI12
 finger_index0 0 1 dI12 finger_block1012 0 CZ3 0 4 T1 0 0 3 20 1 8 8 11 255 4 9
 9 1 10 11 1 12 0 0 0 81 1 9 11 13 4 0 0 14 0 15 12 36 CCCI7 lattice222 0 CCCI4
 mesh1006 0 I8 polyline1008 0 CCCCCCCDI5 owner1040 0 CCCI16 boundary_lattice222
 0 CCCI13 boundary_mesh1006 0 I17 boundary_polyline1008 0 CCCA16 index_map_offse
t0 0 1 dA9 index_map82 0 A17 node_id_index_map82 0 A20 schema_embedding_map82 0
 A5 child12 0 A14 lowest_node_id0 0 1 dA16 mesh_offset_data206 0 Z10 72 16 17 0
 0 0 0 0 0 0 1e3 1e-8 4 0 18 1 0 1 1 19 0 20 21 0 0 0 22 23 0 0 0 0 0 0 0 0 100
 10 CCCCCCCCCA9 precision229 0 Z11 10 4 0 0 1 0 0 0 1 0 0 0 1 .0551030109994022
 .0684072497993798 .03361206222494085 1 1 ?0 11 12 6 14 1 24 25 1 26 4 0 0 81 1
 14 8 13 12 0 0 27 9 28 12 24 316 29 30 0 0 0 0 0 0 0 1e3 1e-8 12 18 0 1 0 1 1 3
1 0 32 33 34 0 0 35 36 37 0 0 0 0 0 0 0 100 25 7 12 0 0 1 0 0 0 1 0 0 0 1 -.0448
9698900059785 .0684072497993798 .03361206222494085 1 1 ?0 11 26 3 27 1 18 38 1 0
 12 0 0 81 1 27 5 13 26 0 0 0 14 39 12 18 107 40 41 0 0 0 0 0 0 0 1e3 1e-8 26 10
 24 1 0 1 1 42 0 43 44 0 0 0 45 46 0 0 0 0 0 0 0 0 100 38 4 26 0 0 1 0 0 0 1 0 0
 0 1 .0551030109994022 .0684072497993797 .0636120622249408 1 1 ?0 81 1 40 107 5
 18 47 0 0 0 48 70 41 0 4 T18 0 0 5 20 1 49 49 13 255 42 62 0 18 0 50 0 0 51 0 5
1 255 43 61 0 50 52 0 0 -0 918485099360515e-33 .05 0 0 -1 .015 -1 0 0 31 255 44
 50 0 53 54 0 0 +0 183697019872103e-32 0 0 0 1 1 0 0 .03 19 9 CCCCCCI5 frame230
 0 CA5 owner12 0 Z45 19 0 18 51 0 55 0 V0 16 255 46 13 56 ?57 0 58 59 0 0 18 81
 1 56 85 60 46 0 0 0 61 62 17 255 57 0 63 57 57 0 64 46 0 0 +16 58 8 61 ?65 46 5
3 66 0 0 18 31 59 15 0 46 66 54 0 +0 183697019872103e-32 .05 0 0 1 1 0 0 .03 31
 66 10 0 58 0 59 0 +0 918485099360515e-33 .05 0 0 1 1 0 0 .015 31 54 51 0 67 59
 44 0 +0 918485099360515e-33 0 0 0 1 1 0 0 .015 16 67 45 68 ?69 53 0 54 0 0 18 8
1 1 68 88 60 67 0 0 70 71 72 17 69 0 73 69 69 0 74 67 0 0 +16 53 41 70 ?75 58 67
 44 0 0 18 81 1 70 87 60 53 0 0 61 68 76 17 75 0 77 75 75 0 78 53 0 0 +15 255 77
 54 0 75 79 0 17 78 0 80 78 78 0 75 53 0 0 -15 80 40 0 78 81 0 14 255 81 34 82 ?
0 83 73 42 84 -0 0 0 83 55 81 1 82 92 60 81 0 0 85 86 87 14 83 1 85 ?81 79 88 42
 89 +0 0 81 79 55 15 73 39 0 69 81 80 50 255 84 49 0 81 89 52 0 +0 0 0 0 0 1 1 0
 0 13 55 20 0 0 0 0 0 0 45 50 14 50 57 71 ?79 0 90 42 43 +0 0 79 0 55 81 1 71 89
 60 50 0 0 68 91 92 14 79 53 91 ?83 50 93 42 52 -0 0 83 50 55 15 90 56 0 65 50 9
4 17 65 0 90 65 65 0 95 58 0 0 +15 94 58 0 74 50 0 17 74 0 94 74 74 0 69 67 0 0
 -17 95 0 88 95 95 0 65 58 0 0 -15 88 6 0 95 83 63 15 63 7 0 57 83 0 81 1 91 90
 60 79 0 0 71 85 96 15 93 52 0 64 79 77 51 52 60 0 79 84 43 0 -0 183697019872103
e-32 .05 0 0 -1 .03 -1 0 0 17 64 0 93 64 64 0 57 46 0 0 -80 7 CCCCCDI12 legal_ow
ners0 16 1 lCZ1 60 97 98 9000 0 0 0 0 3 5 0 0 0 FFTFTFTTFFFFFFFF2 81 1 85 91 60
 83 0 0 91 82 99 83 255 1 96 5 83 1 99 6 79 255 13 98 BTI/importTag83 1 92 4 50
 89 3 0 83 0 84 0 +0 0 .05 0 0 1 1 0 0 81 1 86 93 60 18 0 100 82 0 101 83 1 87 7
 81 1 100 94 102 18 86 103 0 0 104 83 1 101 -1 80 1 102 60 105 9000 0 0 0 0 3 5
 0 0 0 FFTFTFTTFFFFFFFF2 81 1 103 105 106 18 100 47 0 0 107 83 1 104 7 80 1 106
 108 109 8040 0 0 0 0 3 5 0 0 0 TTTFFFFFFFFFFFFF2 81 1 47 106 110 18 103 40 0 0
 111 83 3 107 .615686274509804 .811764705882353 .929411764705882 80 1 110 5 112
 8038 0 0 0 0 0 0 0 0 0 TTTTTTTTTTTTTFTF10 98 255 6 111 80 97 114 116 32 49 79 1
4 112 SDL/TYSA_UNAME79 17 109 SDL/TYSA_COLOUR_279 18 105 BTI/importMaxCount81 1
 61 86 60 58 0 0 56 70 113 83 1 76 2 83 1 113 1 83 1 72 3 83 1 62 0 19 51 63 0 1
8 0 45 42 0 S0 74 4 CI16 index_map_offset0 0 1 dCCZ20 49 5 0 0 86 100 103 47 40
 0 0 0 0 0 0 0 0 0 0 0 0 0 0 0 80 1 5 114 115 8017 0 0 0 0 0 0 0 0 0 TTTTTTTTTTT
TTFTF3 84 255 6 48 Part 179 13 115 SDL/TYSA_NAME80 1 13 116 117 9000 0 0 0 0 3 5
 0 0 0 FTFFFFFFFFFFFFFF3 84 17 39 MRXntuV7ruKP9RJA/79 14 117 BTI/InstanceId81 1
 29 316 5 24 118 0 0 0 119 70 30 0 4 T24 0 0 5 20 1 120 120 13 31 183 0 24 0 121
 0 0 122 0 50 32 178 0 121 123 0 0 +.0475 .0248746859276655 .025 -.1 .9949874371
0662 0 -.99498743710662 -.1 0 30 255 33 182 0 36 124 0 0 +-.002 .019899748742132
4 .025 0 0 -1 29 255 34 149 0 125 126 0 .097 .0298496231131986 0 19 35 60 0 24 1
22 0 127 0 V0 16 36 156 128 ?129 0 130 33 0 0 24 18 255 37 54 131 132 0 133 134
 ?24 81 1 131 246 60 37 0 0 0 135 136 17 132 0 137 138 139 37 140 141 0 142 +18
 133 49 135 139 37 143 144 ?24 29 134 56 0 37 144 145 .097 .0298496231131986 .02
5 29 144 51 0 133 146 134 .097 -.0298496231131986 .025 29 145 152 0 147 134 148
 -.002 .0198997487421324 0 18 147 138 149 129 150 0 145 ?24 29 148 151 0 150 145
 126 -.002 -.0198997487421324 0 18 150 134 151 152 153 147 148 ?24 29 126 150 0
 153 148 34 .097 -.0298496231131986 0 18 153 130 154 155 125 150 126 ?24 81 1 15
4 251 60 153 0 0 156 151 157 17 155 0 158 159 160 153 161 162 0 163 +18 125 126
 156 164 165 153 34 ?24 81 1 156 250 60 125 0 0 166 154 167 17 164 0 168 169 170
 125 142 171 0 172 +18 165 39 166 173 143 125 174 ?24 81 1 166 249 60 165 0 0 17
5 156 176 17 173 0 168 170 169 165 129 36 0 177 -18 143 44 175 178 133 165 146 ?
24 29 174 41 0 165 0 146 -.002 .0198997487421324 .025 29 146 46 0 143 174 144 -.
002 -.0198997487421324 .025 81 1 175 248 60 143 0 0 135 166 179 17 178 0 137 139
 138 143 177 180 0 181 +15 137 6 0 138 182 183 17 139 0 137 132 178 133 184 185
 0 159 +17 138 0 137 178 132 165 170 186 0 0 -17 177 0 187 129 181 165 178 180 0
 138 -16 180 14 188 ?178 185 186 189 0 0 24 17 181 0 187 177 152 143 160 130 0 1
84 -15 187 169 0 152 190 0 17 152 0 187 181 129 150 191 192 0 160 +17 160 0 158
 155 184 150 181 130 0 161 +16 130 155 193 ?160 36 194 124 0 0 24 17 184 0 158 1
60 159 143 139 185 0 0 -15 158 167 0 155 195 0 17 159 0 158 184 155 133 163 194
 0 140 -16 185 19 196 ?139 141 180 197 0 0 24 81 1 196 261 60 185 0 0 198 188 19
9 16 141 24 198 ?132 200 185 201 0 0 24 30 197 21 0 185 189 201 0 +.0475 -.02487
46859276655 .025 .99498743710662 -.1 0 31 189 16 0 180 202 197 0 +-2168404344971
01e-33 -225514051876985e-31 .025 0 0 1 1 0 0 .02 31 201 26 0 141 197 203 0 +.1 -
765736021277324e-32 .025 0 0 1 1 0 0 .03 31 203 31 0 200 201 204 0 +0 6123233995
73677e-33 .025 0 0 1 1 0 0 .01 16 200 29 205 ?206 207 141 203 0 0 24 31 204 36 0
 207 203 208 0 +.1 511940377855311e-32 .025 0 0 1 1 0 0 .015 16 207 34 209 ?210
 171 200 204 0 0 24 30 208 148 0 211 204 212 0 +.0475 .0248746859276655 0 .99498
743710662 .1 0 16 211 122 213 ?214 192 0 208 0 0 24 31 212 147 0 192 208 215 0 +
-216840434497101e-33 -225514051876985e-31 0 0 0 1 1 0 0 .02 16 192 118 216 ?152
 162 211 212 0 0 24 30 215 146 0 162 212 217 0 +.0475 -.0248746859276655 0 .9949
8743710662 -.1 0 16 162 114 218 ?155 219 192 215 0 0 24 31 217 145 0 219 215 220
 0 +.1 -765736021277324e-32 0 0 0 1 1 0 0 .03 16 219 110 221 ?172 222 162 217 0
 0 24 31 220 144 0 222 217 223 0 +0 612323399573677e-33 0 0 0 1 1 0 0 .01 16 222
 106 224 ?225 226 219 220 0 0 24 31 223 143 0 226 220 227 0 +.1 511940377855311e
-32 0 0 0 1 1 0 0 .015 16 226 102 228 ?229 186 222 223 0 0 24 30 227 179 0 171 2
23 230 0 +.097 .0298496231131986 .025 0 0 -1 16 171 153 231 ?164 194 207 227 0 0
 24 30 230 180 0 194 227 124 0 +.097 -.0298496231131986 .025 0 0 -1 16 194 154 2
32 ?163 130 171 230 0 0 24 30 124 181 0 130 230 33 0 +-.002 -.0198997487421324 .
025 0 0 -1 81 1 232 256 60 194 0 0 193 231 233 17 163 0 234 172 140 153 159 194
 0 235 +15 234 165 0 172 236 0 17 172 0 234 142 163 125 235 219 0 214 +17 140 0
 234 163 142 133 132 141 0 0 -17 235 0 237 161 214 153 172 219 0 0 -15 237 99 0
 214 238 239 17 161 0 237 191 235 150 155 162 0 0 -17 214 0 237 235 191 125 169
 211 0 0 +17 191 0 237 214 161 147 152 192 0 169 -17 169 0 168 173 164 147 214 2
11 0 0 -15 168 171 0 169 121 0 14 121 172 240 ?190 0 168 31 32 +0 0 190 0 127 81
 1 240 270 60 121 0 0 213 241 242 14 190 170 241 ?195 121 187 31 123 -0 0 195 12
1 127 13 127 61 0 0 0 0 0 0 35 121 81 1 241 271 60 190 0 0 240 243 244 14 195 16
8 243 ?245 190 158 31 246 -0 0 245 190 127 51 123 177 0 190 246 32 0 --216840434
497101e-33 -225514051876985e-31 .025 0 0 -1 .02 -1 0 0 50 246 176 0 195 247 123
 0 +.0475 -.0248746859276655 .025 .1 .99498743710662 0 -.99498743710662 .1 0 51
 247 175 0 236 248 246 0 -.1 -765736021277324e-32 .025 0 0 -1 .03 -1 0 0 14 236
 166 249 ?250 245 234 31 247 -0 0 250 245 127 51 248 174 0 245 251 247 0 -0 6123
23399573677e-33 .025 0 0 -1 .01 -1 0 0 14 245 162 252 ?236 195 253 31 248 +0 0 2
36 195 127 51 251 173 0 250 254 248 0 -.1 511940377855311e-32 .025 0 0 -1 .015 -
1 0 0 14 250 158 255 ?182 236 256 31 251 +0 0 182 236 127 50 254 142 0 238 257 2
51 0 +.055 0 0 0 0 1 1 0 0 14 238 90 258 ?0 182 237 31 254 -0 0 0 182 127 50 257
 3 0 182 0 254 0 +.055 0 .025 0 0 1 1 0 0 14 182 1 259 ?238 250 137 31 257 +0 0
 238 250 127 81 1 259 276 60 182 0 0 255 258 260 81 1 255 275 60 250 0 0 249 259
 261 81 1 258 277 60 238 0 0 259 262 263 83 1 260 30 81 1 262 278 60 24 0 264 25
8 0 265 83 1 263 31 81 1 264 279 102 24 262 266 0 0 267 83 1 265 -1 81 1 266 314
 106 24 264 118 0 0 268 83 1 267 31 81 1 118 315 110 24 266 29 0 0 269 83 3 268
 .615686274509804 .811764705882353 .929411764705882 98 6 269 80 97 114 116 32 49
 81 1 249 274 60 236 0 0 252 255 270 83 1 261 29 81 1 252 273 60 245 0 0 243 249
 271 83 1 270 28 81 1 243 272 60 195 0 0 241 252 272 83 1 271 27 83 1 272 26 15
 256 157 0 210 250 273 17 210 0 256 210 210 0 274 207 0 0 +15 273 159 0 275 250
 0 17 275 0 273 275 275 0 229 226 0 0 -17 229 0 276 229 229 0 275 226 0 0 +15 27
6 101 0 229 238 0 17 274 0 277 274 274 0 210 207 0 0 -15 277 8 0 274 182 0 15 25
3 161 0 206 245 278 17 206 0 253 206 206 0 279 200 0 0 +15 278 163 0 280 245 0 1
7 280 0 278 280 280 0 225 222 0 0 -17 225 0 239 225 225 0 280 222 0 0 +15 239 10
0 0 225 238 276 17 279 0 183 279 279 0 206 200 0 0 -15 183 7 0 279 182 277 83 1
 244 25 81 1 213 269 60 211 0 0 216 240 281 83 1 242 24 81 1 216 268 60 192 0 0
 218 213 282 83 1 281 23 81 1 218 267 60 162 0 0 221 216 283 83 1 282 22 81 1 22
1 266 60 219 0 0 224 218 284 83 1 283 21 81 1 224 265 60 222 0 0 228 221 285 83
 1 284 20 81 1 228 264 60 226 0 0 286 224 287 83 1 285 19 81 1 286 263 60 186 0
 0 188 228 288 83 1 287 18 16 186 9 286 ?170 180 226 202 0 0 24 81 1 188 262 60
 180 0 0 196 286 289 83 1 288 17 83 1 289 16 17 170 0 168 164 173 37 138 186 0 0
 +30 202 11 0 186 0 189 0 +.0475 .0248746859276655 .025 .99498743710662 .1 0 17
 142 0 234 140 172 37 164 171 0 170 -81 1 193 255 60 130 0 0 128 232 290 81 1 23
1 257 60 171 0 0 232 209 291 83 1 233 10 81 1 209 258 60 207 0 0 231 205 292 83
 1 291 11 81 1 205 259 60 200 0 0 209 198 293 83 1 292 12 81 1 198 260 60 141 0
 0 205 196 294 83 1 293 13 83 1 294 14 81 1 128 254 60 36 0 0 149 193 295 83 1 2
90 9 81 1 149 253 60 147 0 0 151 128 296 83 1 295 8 81 1 151 252 60 150 0 0 154
 149 297 83 1 296 7 83 1 297 6 83 1 199 15 17 129 0 187 152 177 147 173 36 0 191
 +81 1 135 247 60 133 0 0 131 175 298 83 1 179 2 83 1 298 1 83 1 176 3 83 1 167
 4 83 1 157 5 83 1 136 0 19 122 184 0 24 0 35 31 0 S0 74 20 120 5 0 0 262 264 26
6 118 29 0 0 0 0 0 0 0 0 0 0 0 0 0 0 0 84 6 119 Part 184 17 28 M9Qs2vRdJq4wLOmns
81 1 16 72 5 10 299 0 0 0 300 70 17 0 4 T10 0 0 5 20 1 301 301 13 19 39 0 10 0 3
02 0 0 303 0 51 20 38 0 302 304 0 0 -0 765404249467096e-33 .08 0 0 -1 .0125 -1 0
 0 31 21 33 0 305 306 0 0 +0 765404249467096e-33 0 0 0 1 1 0 0 .0125 19 22 13 0
 10 303 0 307 0 V0 16 23 7 308 ?309 0 305 306 0 0 10 81 1 308 56 60 23 0 0 0 310
 311 17 309 0 312 309 309 0 313 23 0 0 +16 305 28 310 ?314 23 0 21 0 0 10 31 306
 9 0 23 0 21 0 +0 765404249467096e-33 .08 0 0 1 1 0 0 .0125 81 1 310 57 60 305 0
 0 308 315 316 17 314 0 317 314 314 0 318 305 0 0 +15 317 36 0 314 302 0 17 318
 0 319 318 318 0 314 305 0 0 -15 319 27 0 318 320 0 14 320 23 321 ?0 322 319 19
 304 -0 0 0 322 307 81 1 321 60 60 320 0 0 323 324 325 14 322 1 323 ?320 302 312
 19 326 +0 0 320 302 307 50 304 32 0 320 326 20 0 +0 0 0 0 0 1 1 0 0 13 307 14 0
 0 0 0 0 0 22 302 14 302 35 315 ?322 0 327 19 20 -0 0 322 0 307 81 1 315 58 60 3
02 0 0 310 323 328 15 327 34 0 313 302 317 17 313 0 327 313 313 0 309 23 0 0 -81
 1 323 59 60 322 0 0 315 321 329 83 1 328 2 83 1 329 3 50 326 3 0 322 0 304 0 +0
 0 .08 0 0 1 1 0 0 15 312 6 0 309 322 0 81 1 324 61 60 10 0 330 321 0 331 83 1 3
25 4 81 1 330 62 102 10 324 332 0 0 333 83 1 331 -1 81 1 332 70 106 10 330 299 0
 0 334 83 1 333 4 81 1 299 71 110 10 332 16 0 0 335 83 3 334 .615686274509804 .8
11764705882353 .929411764705882 98 6 335 80 97 114 116 32 49 83 1 316 1 83 1 311
 0 19 303 40 0 10 0 22 19 0 S0 74 20 301 5 0 0 324 330 332 299 16 0 0 0 0 0 0 0
 0 0 0 0 0 0 0 0 84 6 300 Part 184 17 15 M94oE9opCicXDBd7J74 20 8 3 0 0 6 2 9 0
 0 0 0 0 0 0 0 0 0 0 0 0 0 0 0 0 81 1 6 1 110 1 0 2 0 0 336 98 10 336 65 115 115
 101 109 98 108 121 32 49 84 10 7 Assembly 11 0 
